<svg width="31" height="31" viewBox="0 0 31 31" fill="none" xmlns="http://www.w3.org/2000/svg">
<circle cx="15.5" cy="15.5" r="15" fill="black" stroke="white"/>
<path d="M11.6863 22.18C10.9663 22.18 10.3363 22.03 9.79633 21.73C9.25633 21.418 8.83033 20.986 8.51833 20.434V22H6.01633V8.86H8.89633V14.098C9.20833 13.546 9.62233 13.12 10.1383 12.82C10.6663 12.52 11.2843 12.37 11.9923 12.37C12.5923 12.37 13.1383 12.502 13.6303 12.766C14.1343 13.018 14.5663 13.372 14.9263 13.828C15.2983 14.272 15.5863 14.794 15.7903 15.394C15.9943 15.982 16.0963 16.624 16.0963 17.32C16.0963 18.004 15.9823 18.64 15.7543 19.228C15.5383 19.816 15.2323 20.332 14.8363 20.776C14.4403 21.22 13.9723 21.568 13.4323 21.82C12.9043 22.06 12.3223 22.18 11.6863 22.18ZM10.8763 19.75C11.2003 19.75 11.5003 19.69 11.7763 19.57C12.0643 19.438 12.3103 19.264 12.5143 19.048C12.7183 18.832 12.8743 18.58 12.9823 18.292C13.0903 17.992 13.1443 17.668 13.1443 17.32C13.1443 16.876 13.0543 16.462 12.8743 16.078C12.6943 15.694 12.4423 15.388 12.1183 15.16C11.8063 14.932 11.4403 14.818 11.0203 14.818C10.7203 14.818 10.4323 14.89 10.1563 15.034C9.88033 15.178 9.63433 15.376 9.41833 15.628C9.20233 15.868 9.02833 16.144 8.89633 16.456V18.436C8.99233 18.64 9.11233 18.826 9.25633 18.994C9.40033 19.15 9.55633 19.282 9.72433 19.39C9.90433 19.498 10.0903 19.588 10.2823 19.66C10.4863 19.72 10.6843 19.75 10.8763 19.75ZM22.12 22.18C21.4 22.18 20.77 22.03 20.23 21.73C19.69 21.418 19.264 20.986 18.952 20.434V22H16.45V8.86H19.33V14.098C19.642 13.546 20.056 13.12 20.572 12.82C21.1 12.52 21.718 12.37 22.426 12.37C23.026 12.37 23.572 12.502 24.064 12.766C24.568 13.018 25 13.372 25.36 13.828C25.732 14.272 26.02 14.794 26.224 15.394C26.428 15.982 26.53 16.624 26.53 17.32C26.53 18.004 26.416 18.64 26.188 19.228C25.972 19.816 25.666 20.332 25.27 20.776C24.874 21.22 24.406 21.568 23.866 21.82C23.338 22.06 22.756 22.18 22.12 22.18ZM21.31 19.75C21.634 19.75 21.934 19.69 22.21 19.57C22.498 19.438 22.744 19.264 22.948 19.048C23.152 18.832 23.308 18.58 23.416 18.292C23.524 17.992 23.578 17.668 23.578 17.32C23.578 16.876 23.488 16.462 23.308 16.078C23.128 15.694 22.876 15.388 22.552 15.16C22.24 14.932 21.874 14.818 21.454 14.818C21.154 14.818 20.866 14.89 20.59 15.034C20.314 15.178 20.068 15.376 19.852 15.628C19.636 15.868 19.462 16.144 19.33 16.456V18.436C19.426 18.64 19.546 18.826 19.69 18.994C19.834 19.15 19.99 19.282 20.158 19.39C20.338 19.498 20.524 19.588 20.716 19.66C20.92 19.72 21.118 19.75 21.31 19.75Z" fill="white"/>
</svg>
